PathFileType	4	(X/Y/Z)	C:\Users\86182\Documents\cortex\Trimmed_M3_H13.trc
DataRate	CameraRate	NumFrames	NumMarkers	Units	OrigDataRate	OrigDataStartFrame	OrigNumFrames
100.00	100.00	       140	2	mm	100.00	361	       901
Frame#	Time	gripper			box			
		X1	Y1	Z1	X2	Y2	Z2	

361	3.600	268.07892	173.38849	292.67065	271.19263	170.29971	150.25659	
362	3.610	268.05841	173.40305	292.68481	271.64371	170.05168	150.03703	
363	3.620	268.04373	173.41197	292.68823	272.01208	169.84598	149.85516	
364	3.630	268.03519	173.41602	292.68536	272.43118	169.60590	149.63789	
365	3.640	268.03192	173.41637	292.67947	272.94571	169.30666	149.36182	
366	3.650	268.03256	173.41429	292.67276	273.48965	168.98750	149.06514	
367	3.660	268.03583	173.41080	292.66644	273.97504	168.70013	148.79808	
368	3.670	268.04065	173.40663	292.66113	274.35657	168.47112	148.58678	
369	3.680	268.04605	173.40257	292.65704	274.62985	168.30345	148.43465	
370	3.690	268.05121	173.39928	292.65445	274.81119	168.18887	148.33366	
371	3.700	268.05579	173.39720	292.65344	274.92462	168.11497	148.27144	
372	3.710	268.05981	173.39645	292.65396	274.99496	168.06853	148.23482	
373	3.720	268.06354	173.39690	292.65594	275.04327	168.03763	148.21214	
374	3.730	268.06720	173.39815	292.65912	275.08331	168.01370	148.19507	
375	3.740	268.07080	173.39961	292.66302	275.11890	167.99326	148.17998	
376	3.750	268.07388	173.40042	292.66675	275.14163	167.97928	148.16936	
377	3.760	268.07550	173.39934	292.66895	275.12921	167.98230	148.17281	
378	3.770	268.07407	173.39479	292.66748	275.04440	168.02129	148.20790	
379	3.780	268.06732	173.38496	292.65961	274.83624	168.12344	148.29973	
380	3.790	268.05273	173.36807	292.64212	274.44550	168.32175	148.47838	
381	3.800	268.02771	173.34293	292.61169	273.81784	168.64793	148.77261	
382	3.810	267.99023	173.30984	292.56601	272.92816	169.11870	149.19749	
383	3.820	267.94064	173.27141	292.50488	271.81693	169.71416	149.73505	
384	3.830	267.88266	173.23227	292.43173	270.61240	170.36444	150.32149	
385	3.840	267.82312	173.19736	292.35388	269.48798	170.97395	150.86894	
386	3.850	267.76962	173.16992	292.28107	268.57480	171.47089	151.31149	
387	3.860	267.72864	173.15068	292.22308	267.92014	171.83040	151.62740	
388	3.870	267.70428	173.13826	292.18701	267.50842	172.06169	151.82794	
389	3.880	267.69769	173.13049	292.17529	267.29364	172.18930	151.93918	
390	3.890	267.70688	173.12534	292.18561	267.21988	172.24188	151.98947	
391	3.900	267.72720	173.12146	292.21167	267.23383	172.24622	152.00240	
392	3.910	267.75223	173.11832	292.24442	267.29172	172.22397	151.99475	
393	3.920	267.77530	173.11581	292.27441	267.36264	172.19022	151.97719	
394	3.930	267.79120	173.11404	292.29431	267.42789	172.15390	151.95589	
395	3.940	267.79709	173.11316	292.30042	267.47842	172.11977	151.93442	
396	3.950	267.79276	173.11343	292.29266	267.51157	172.09056	151.91486	
397	3.960	267.78006	173.11522	292.27408	267.52859	172.06790	151.89856	
398	3.970	267.76279	173.11842	292.25009	267.53317	172.05234	151.88622	
399	3.980	267.74594	173.12231	292.22742	267.53015	172.04335	151.87799	
400	3.990	267.73438	173.12572	292.21246	267.52481	172.03981	151.87372	
401	4.000	267.73135	173.12762	292.20926	267.52121	172.04033	151.87308	
402	4.010	267.73740	173.12772	292.21835	267.52142	172.04352	151.87537	
403	4.020	267.75027	173.12634	292.23657	267.52509	172.04810	151.87955	
404	4.030	267.76575	173.12430	292.25812	267.53027	172.05305	151.88437	
405	4.040	267.77902	173.12227	292.27640	267.53503	172.05759	151.88863	
406	4.050	267.78622	173.12073	292.28601	267.53796	172.06099	151.89139	
407	4.060	267.78555	173.12003	292.28455	267.53857	172.06277	151.89214	
408	4.070	267.77750	173.12036	292.27304	267.53687	172.06305	151.89101	
409	4.080	267.76483	173.12160	292.25562	267.53333	172.06244	151.88864	
410	4.090	267.75146	173.12312	292.23773	267.52908	172.06166	151.88594	
411	4.100	267.74124	173.12401	292.22443	267.52579	172.06090	151.88373	
412	4.110	267.73676	173.12344	292.21915	267.52521	172.05984	151.88263	
413	4.120	267.73883	173.12115	292.22287	267.52802	172.05814	151.88284	
414	4.130	267.74667	173.11757	292.23413	267.53314	172.05586	151.88406	
415	4.140	267.75824	173.11365	292.24982	267.53882	172.05360	151.88574	
416	4.150	267.77087	173.11041	292.26593	267.54355	172.05190	151.88737	
417	4.160	267.78143	173.10864	292.27832	267.54648	172.05096	151.88850	
418	4.170	267.78708	173.10875	292.28345	267.54712	172.05084	151.88884	
419	4.180	267.78598	173.11078	292.27969	267.54532	172.05156	151.88823	
420	4.190	267.77805	173.11440	292.26767	267.54111	172.05310	151.88664	
421	4.200	267.76495	173.11902	292.25009	267.53488	172.05540	151.88423	
422	4.210	267.74988	173.12376	292.23111	267.52756	172.05840	151.88142	
423	4.220	267.73651	173.12775	292.21539	267.52072	172.06174	151.87897	
424	4.230	267.72818	173.13017	292.20700	267.51627	172.06479	151.87761	
425	4.240	267.72675	173.13062	292.20844	267.51544	172.06689	151.87787	
426	4.250	267.73230	173.12910	292.21973	267.51840	172.06766	151.87976	
427	4.260	267.74323	173.12616	292.23822	267.52414	172.06729	151.88292	
428	4.270	267.75665	173.12262	292.25946	267.53079	172.06668	151.88675	
429	4.280	267.76907	173.11943	292.27792	267.53665	172.06677	151.89058	
430	4.290	267.77713	173.11728	292.28894	267.54071	172.06786	151.89375	
431	4.300	267.77887	173.11656	292.28989	267.54269	172.06943	151.89565	
432	4.310	267.77411	173.11734	292.28085	267.54279	172.07068	151.89584	
433	4.320	267.76440	173.11943	292.26468	267.54153	172.07108	151.89445	
434	4.330	267.75269	173.12225	292.24594	267.53964	172.07059	151.89209	
435	4.340	267.74222	173.12500	292.22943	267.53787	172.06947	151.88959	
436	4.350	267.73557	173.12679	292.21875	267.53693	172.06801	151.88762	
437	4.360	267.73398	173.12703	292.21582	267.53714	172.06630	151.88651	
438	4.370	267.73749	173.12563	292.22070	267.53845	172.06436	151.88632	
439	4.380	267.74490	173.12291	292.23184	267.54053	172.06236	151.88693	
440	4.390	267.75406	173.11957	292.24637	267.54276	172.06064	151.88809	
441	4.400	267.76242	173.11636	292.26068	267.54471	172.05956	151.88950	
442	4.410	267.76791	173.11391	292.27118	267.54605	172.05916	151.89070	
443	4.420	267.76926	173.11256	292.27527	267.54663	172.05916	151.89131	
444	4.430	267.76633	173.11252	292.27234	267.54654	172.05928	151.89110	
445	4.440	267.76019	173.11372	292.26367	267.54581	172.05960	151.89020	
446	4.450	267.75284	173.11581	292.25226	267.54446	172.06052	151.88898	
447	4.460	267.74643	173.11813	292.24133	267.54279	172.06212	151.88776	
448	4.470	267.74283	173.11998	292.23364	267.54111	172.06398	151.88675	
449	4.480	267.74313	173.12083	292.23077	267.53998	172.06531	151.88609	
450	4.490	267.74762	173.12050	292.23306	267.53979	172.06535	151.88585	
451	4.500	267.75558	173.11913	292.23975	267.54071	172.06381	151.88594	
452	4.510	267.76535	173.11705	292.24899	267.54245	172.06087	151.88626	
453	4.520	267.77457	173.11472	292.25818	267.54462	172.05711	151.88664	
454	4.530	267.78073	173.11250	292.26453	267.54678	172.05321	151.88693	
455	4.540	267.78226	173.11082	292.26642	267.54865	172.04977	151.88708	
456	4.550	267.77924	173.10994	292.26398	267.54996	172.04718	151.88712	
457	4.560	267.77332	173.10986	292.25870	267.55072	172.04562	151.88710	
458	4.570	267.76694	173.11035	292.25314	267.55099	172.04509	151.88710	
459	4.580	267.76248	173.11093	292.24973	267.55084	172.04550	151.88716	
460	4.590	267.76123	173.11121	292.24982	267.55035	172.04672	151.88734	
461	4.600	267.76312	173.11113	292.25336	267.54962	172.04861	151.88768	
462	4.610	267.76694	173.11096	292.25882	267.54868	172.05107	151.88811	
463	4.620	267.77087	173.11101	292.26404	267.54758	172.05386	151.88857	
464	4.630	267.77338	173.11130	292.26703	267.54651	172.05650	151.88893	
465	4.640	267.77353	173.11168	292.26685	267.54562	172.05846	151.88905	
466	4.650	267.77136	173.11201	292.26349	267.54504	172.05936	151.88889	
467	4.660	267.76740	173.11227	292.25781	267.54486	172.05927	151.88849	
468	4.670	267.76266	173.11249	292.25122	267.54495	172.05843	151.88800	
469	4.680	267.75845	173.11252	292.24542	267.54526	172.05713	151.88751	
470	4.690	267.75607	173.11203	292.24194	267.54578	172.05553	151.88707	
471	4.700	267.75671	173.11086	292.24213	267.54651	172.05363	151.88675	
472	4.710	267.76080	173.10912	292.24652	267.54749	172.05147	151.88658	
473	4.720	267.76797	173.10722	292.25458	267.54858	172.04926	151.88655	
474	4.730	267.77704	173.10573	292.26501	267.54959	172.04729	151.88663	
475	4.740	267.78625	173.10509	292.27563	267.55038	172.04587	151.88678	
476	4.750	267.79370	173.10541	292.28415	267.55084	172.04510	151.88693	
477	4.760	267.79764	173.10660	292.28842	267.55099	172.04503	151.88710	
478	4.770	267.79718	173.10841	292.28735	267.55078	172.04558	151.88722	
479	4.780	267.79236	173.11060	292.28116	267.55029	172.04668	151.88725	
480	4.790	267.78424	173.11279	292.27148	267.54950	172.04819	151.88721	
481	4.800	267.77475	173.11465	292.26077	267.54855	172.04997	151.88708	
482	4.810	267.76608	173.11586	292.25174	267.54755	172.05190	151.88698	
483	4.820	267.76007	173.11624	292.24649	267.54672	172.05362	151.88702	
484	4.830	267.75763	173.11580	292.24594	267.54630	172.05478	151.88727	
485	4.840	267.75864	173.11470	292.24985	267.54645	172.05515	151.88777	
486	4.850	267.76248	173.11313	292.25720	267.54703	172.05486	151.88844	
487	4.860	267.76807	173.11133	292.26636	267.54782	172.05414	151.88914	
488	4.870	267.77396	173.10960	292.27524	267.54865	172.05307	151.88965	
489	4.880	267.77896	173.10820	292.28189	267.54947	172.05162	151.88980	
490	4.890	267.78217	173.10722	292.28503	267.55017	172.04985	151.88953	
491	4.900	267.78333	173.10664	292.28436	267.55069	172.04803	151.88898	
492	4.910	267.78275	173.10628	292.28052	267.55106	172.04649	151.88832	
493	4.920	267.78146	173.10608	292.27493	267.55118	172.04544	151.88771	
494	4.930	267.78067	173.10611	292.26917	267.55112	172.04494	151.88724	
495	4.940	267.78116	173.10634	292.26468	267.55087	172.04497	151.88689	
496	4.950	267.78290	173.10658	292.26208	267.55051	172.04546	151.88667	
497	4.960	267.78516	173.10654	292.26132	267.55005	172.04628	151.88660	
498	4.970	267.78683	173.10608	292.26184	267.54959	172.04724	151.88664	
499	4.980	267.78714	173.10536	292.26282	267.54929	172.04807	151.88680	
500	4.990	267.78583	173.10468	292.26364	267.54916	172.04865	151.88705	
